# xmcd
#
# Track frame offsets:
#	150
#	12863
#	23270
#	36348
#	51105
#	63158
#	76250
#	92245
#	104205
#
# Disc length: 1572 seconds
#
# Revision: 0
# Processed by: cddbd v1.5.2PL0 Copyright (c) Steve Scherf et al.
# Submitted via: EZCDAudioConverter 1.5.5.1
#
DISCID=67062209
DTITLE=Tracy Ramsey - Dr  Jeckyll and Mr  Hyde
DYEAR=1900
DGENRE=Country
TTITLE0=Dr  Jeckyll and Mr  Hyde
TTITLE1=If This Is Love  Forget It
TTITLE2=Apartment #9
TTITLE3=Lonestar Lonesome
TTITLE4=Dropping Out Of Sight
TTITLE5=Another Day Without You
TTITLE6=Lost A Little New
TTITLE7=Every Time That You Cry
TTITLE8=How Many Love Songs
EXTD=
EXTT0=
EXTT1=
EXTT2=
EXTT3=
EXTT4=
EXTT5=
EXTT6=
EXTT7=
EXTT8=
PLAYORDER=
